<svg width="470" height="470" viewBox="0 0 470 470" fill="none" xmlns="http://www.w3.org/2000/svg">
<g filter="url(#filter0_d)">
<path d="M39.3307 158.301H35.7674C36.8624 158.283 38.0502 158.283 39.3307 158.301Z" fill="#18335A"/>
<path d="M221.541 315.847C221.486 316.051 221.43 316.256 221.393 316.46C195.114 316.59 170.653 301.91 152.354 283.072C136.059 266.277 122.938 246.864 110.652 227.043C98.9602 208.206 87.2867 188.868 70.7694 173.78C67.6701 170.94 64.5522 168.305 60.7105 166.467C57.4256 164.89 54.0479 163.702 51.4682 162.885V249.964C51.4682 260.709 50.5588 270.137 32 269.432V158.301H39.3307C41.9661 158.339 44.9726 158.413 48.2761 158.376C49.2412 158.357 50.299 158.376 51.4682 158.431C54.9758 158.561 59.3557 159.062 64.181 160.417C84.5586 166.115 99.7954 184.785 112.36 200.727C125.741 217.671 137.117 236.063 148.29 254.51C158.144 270.805 169.725 287.601 185.129 299.126C190.752 303.339 196.802 307.106 203.224 310.001C205.321 310.948 208.903 312.247 212.986 313.527C216.363 314.567 219.296 315.328 221.541 315.847Z" fill="#18335A"/>
<path d="M115.088 225.93C128.766 210.878 142.444 195.827 156.103 180.776H162.394C163.898 180.776 165.401 181.166 166.626 182.038C166.941 182.261 167.257 182.521 167.554 182.836C169.892 185.212 169.614 188.367 169.577 188.831C169.577 201.915 169.577 214.999 169.577 228.082H163.062C161.04 228.082 159.017 227.414 157.55 226.004C157.383 225.837 157.198 225.651 157.031 225.447C156.585 224.927 156.251 224.389 155.992 223.87C155.416 222.719 155.175 221.438 155.175 220.139V189.035C142.852 202.768 130.566 216.502 118.28 230.235C117.204 228.806 116.146 227.377 115.088 225.93Z" fill="#18335A"/>
</g>
<g filter="url(#filter1_d)">
<path d="M196.38 185.186L210.124 208.941L223.815 185.186H228.82V227.557H223.339V196.944L210.124 219.825L196.857 196.944V227.557H191.375V185.186H196.38Z" fill="#18335A"/>
<path d="M261.684 215.217V211.192C261.366 209.479 260.519 207.925 259.142 206.531C257.288 204.695 255.064 203.777 252.469 203.777C249.856 203.777 247.622 204.695 245.769 206.531C243.933 208.367 243.015 210.591 243.015 213.204C243.015 215.799 243.933 218.024 245.769 219.878C247.622 221.714 249.856 222.632 252.469 222.632C255.064 222.632 257.288 221.714 259.142 219.878C260.519 218.483 261.366 216.929 261.684 215.217ZM261.684 202.214V200.308H267.192V227.584H261.684V224.168C259.036 226.904 255.964 228.272 252.469 228.272C248.302 228.272 244.745 226.807 241.796 223.876C238.866 220.928 237.4 217.371 237.4 213.204C237.4 209.038 238.866 205.489 241.796 202.558C244.745 199.61 248.302 198.136 252.469 198.136C255.964 198.136 259.036 199.495 261.684 202.214Z" fill="#18335A"/>
<path d="M280.672 203.988C282.72 201.217 285.235 199.76 288.219 199.619V205.313C286.224 205.418 284.635 206.063 283.452 207.246C281.669 209.011 280.742 211.112 280.672 213.548V227.557H275.19V200.308H280.672V203.988Z" fill="#18335A"/>
<path d="M300.03 200.308V227.557H294.548V200.308H300.03ZM297.276 189.106C298.335 189.106 299.244 189.476 300.003 190.218C300.763 190.959 301.142 191.869 301.142 192.946C301.142 194.023 300.763 194.932 300.003 195.673C299.244 196.415 298.335 196.785 297.276 196.785C296.234 196.785 295.334 196.415 294.575 195.673C293.815 194.932 293.436 194.023 293.436 192.946C293.436 191.869 293.815 190.959 294.575 190.218C295.334 189.476 296.234 189.106 297.276 189.106Z" fill="#18335A"/>
<path d="M311.761 200.308V190.086H317.243V200.308H322.142V205.789H317.243V227.557H311.761V205.789H306.862V200.308H311.761Z" fill="#18335A"/>
<path d="M352.146 215.217V211.192C351.828 209.479 350.981 207.925 349.604 206.531C347.75 204.695 345.526 203.777 342.93 203.777C340.317 203.777 338.084 204.695 336.23 206.531C334.394 208.367 333.476 210.591 333.476 213.204C333.476 215.799 334.394 218.024 336.23 219.878C338.084 221.714 340.317 222.632 342.93 222.632C345.526 222.632 347.75 221.714 349.604 219.878C350.981 218.483 351.828 216.929 352.146 215.217ZM352.146 202.214V200.308H357.654V227.584H352.146V224.168C349.498 226.904 346.426 228.272 342.93 228.272C338.764 228.272 335.206 226.807 332.258 223.876C329.328 220.928 327.862 217.371 327.862 213.204C327.862 209.038 329.328 205.489 332.258 202.558C335.206 199.61 338.764 198.136 342.93 198.136C346.426 198.136 349.498 199.495 352.146 202.214Z" fill="#18335A"/>
<path d="M371.16 207.616V227.557H365.652V200.308H371.16V203.485C372.307 200.378 374.611 198.825 378.072 198.825C381.02 198.825 383.359 199.875 385.089 201.976C386.837 204.059 387.737 206.681 387.79 209.841V227.557H382.309V210.053C382.309 208.482 381.735 207.14 380.587 206.028C379.44 204.898 378.072 204.333 376.483 204.333C374.911 204.333 373.552 204.88 372.404 205.975C371.769 206.628 371.354 207.175 371.16 207.616Z" fill="#18335A"/>
<path d="M419.463 215.217V211.192C419.145 209.479 418.297 207.925 416.92 206.531C415.067 204.695 412.842 203.777 410.247 203.777C407.634 203.777 405.401 204.695 403.547 206.531C401.711 208.367 400.793 210.591 400.793 213.204C400.793 215.799 401.711 218.024 403.547 219.878C405.401 221.714 407.634 222.632 410.247 222.632C412.842 222.632 415.067 221.714 416.92 219.878C418.297 218.483 419.145 216.929 419.463 215.217ZM419.463 202.214V200.308H424.971V227.584H419.463V224.168C416.814 226.904 413.743 228.272 410.247 228.272C406.08 228.272 402.523 226.807 399.575 223.876C396.644 220.928 395.179 217.371 395.179 213.204C395.179 209.038 396.644 205.489 399.575 202.558C402.523 199.61 406.08 198.136 410.247 198.136C413.743 198.136 416.814 199.495 419.463 202.214Z" fill="#18335A"/>
</g>
<g filter="url(#filter2_d)">
<path d="M168.37 158.45C170.041 160.083 170.876 162.069 170.876 164.444C170.876 166.801 170.041 168.806 168.37 170.42C166.7 172.053 164.714 172.87 162.376 172.87C160.093 172.87 158.107 172.053 156.455 170.42C154.785 168.787 153.95 166.801 153.95 164.444C153.95 162.087 154.785 160.083 156.455 158.45C158.107 156.817 160.093 156 162.376 156C164.696 156 166.7 156.817 168.37 158.45Z" fill="#E93F5C"/>
</g>
<defs>
<filter id="filter0_d" x="28" y="158.287" width="197.541" height="166.173" filterUnits="userSpaceOnUse" color-interpolation-filters="sRGB">
<feFlood flood-opacity="0" result="BackgroundImageFix"/>
<feColorMatrix in="SourceAlpha" type="matrix" values="0 0 0 0 0 0 0 0 0 0 0 0 0 0 0 0 0 0 127 0"/>
<feOffset dy="4"/>
<feGaussianBlur stdDeviation="2"/>
<feColorMatrix type="matrix" values="0 0 0 0 0 0 0 0 0 0 0 0 0 0 0 0 0 0 0.1 0"/>
<feBlend mode="normal" in2="BackgroundImageFix" result="effect1_dropShadow"/>
<feBlend mode="normal" in="SourceGraphic" in2="effect1_dropShadow" result="shape"/>
</filter>
<filter id="filter1_d" x="187.375" y="185.186" width="241.596" height="51.0858" filterUnits="userSpaceOnUse" color-interpolation-filters="sRGB">
<feFlood flood-opacity="0" result="BackgroundImageFix"/>
<feColorMatrix in="SourceAlpha" type="matrix" values="0 0 0 0 0 0 0 0 0 0 0 0 0 0 0 0 0 0 127 0"/>
<feOffset dy="4"/>
<feGaussianBlur stdDeviation="2"/>
<feColorMatrix type="matrix" values="0 0 0 0 0 0 0 0 0 0 0 0 0 0 0 0 0 0 0.1 0"/>
<feBlend mode="normal" in2="BackgroundImageFix" result="effect1_dropShadow"/>
<feBlend mode="normal" in="SourceGraphic" in2="effect1_dropShadow" result="shape"/>
</filter>
<filter id="filter2_d" x="149.95" y="156" width="24.9257" height="24.87" filterUnits="userSpaceOnUse" color-interpolation-filters="sRGB">
<feFlood flood-opacity="0" result="BackgroundImageFix"/>
<feColorMatrix in="SourceAlpha" type="matrix" values="0 0 0 0 0 0 0 0 0 0 0 0 0 0 0 0 0 0 127 0"/>
<feOffset dy="4"/>
<feGaussianBlur stdDeviation="2"/>
<feColorMatrix type="matrix" values="0 0 0 0 0 0 0 0 0 0 0 0 0 0 0 0 0 0 0.1 0"/>
<feBlend mode="normal" in2="BackgroundImageFix" result="effect1_dropShadow"/>
<feBlend mode="normal" in="SourceGraphic" in2="effect1_dropShadow" result="shape"/>
</filter>
</defs>
</svg>
